{"title":"House On Haunted Hill *2007* [DVDRip.XviD-miguel] [ENG]","uid":6397977,"size":737137724,"categoryP":"video","categoryS":"movies","magnet":"?xt=urn:btih:53beaad9b648318bc836677d71c0544b909b5b5a&amp;dn=+House+On+Haunted+Hill+%2A2007%2A+%5BDVDRip.XviD-miguel%5D+%5BENG%5D&amp;tr=udp%3A%2F%2Ftracker.openbittorrent.com%3A80&amp;tr=udp%3A%2F%2Fopen.demonii.com%3A1337&amp;tr=udp%3A%2F%2Ftracker.coppersurfer.tk%3A6969&amp;tr=udp%3A%2F%2Fexodus.desync.com%3A6969","seeders":5,"leechers":1,"uploader":"miguel1983","files":-1,"time":1305576400,"description":" &lt;a href=&quot;http://imageshack.us/m/59/927/71720743.jpg&quot; rel=&quot;nofollow&quot; target=&quot;_NEW&quot;&gt;http://imageshack.us/m/59/927/71720743.jpg&lt;/a&gt;\n\nCountry.......: USA\nGenre.........: Horror, Thriller\nDate release..: 03.10.2007 [World]\nDirector......: Victor Garcia\nWriters.......: William Massa\nDuration......: 81 min.\nMore..........: http://www.imdb.com/title/tt0827782\nTrailer.......: http://www.imdb.com/video/screenplay/vi3984785689\nTrailer.......:\n\nPilot :\nThe editor of a fashion magazine Ariel Wolfe receives many calls from her sister Sara, but she does not return. When Sara is found dead, apparently after committing suicide, Ariel goes to her apartment with her friend and photographer Paul. She meets Professor Richard, who is seeking Sara's journal to find a lead to the statue of the evil god Baphomet for a museum. Later, Ariel and Paul are kidnapped by the gang of the treasure hunter Desmond, who intends to find and sell the statue to a private collector for five million dollars. They go to the house, where they meet Richard, his assistant Kyle and the student Michelle, but the criminals dominate the group. However, the house suddenly closes all the exits and they find trapped inside with vision of ghosts that are reliving their final moments in the place they died.\n\nCats :\nAmanda Righetti   \t ...  \tAriel Wolfe\nCerina Vincent \t... \tMichelle\nErik Palladino \t... \tDesmond\nTom Riley \t... \tPaul\nAndrew Lee Potts \t... \tKyle\nJeffrey Combs \t... \tDr. Vannacutt\nSteven Pacey \t... \tDr. Richard Hammer\nCalita Rainford \t... \tHarue (as Kalita Rainford)\nGil Kolirin \t... \tNorris\nAndrew Pleavin \t... \tSamuel\nCharles Venn \t... \tWarren (as Chucky Venice)\nTatina de Marinis \t... \tAriel s Assistant\nGeorge Zlatarev \t... \tLead Inmate Ghost\nStilyana Mitkova \t... \tSara s Ghost\nLaia Gonzalez \t... \tNurse Ghost \n\nData Technical :\n!!! SAMPLE !!!\nAudio.....: English\nSubtitles.: English .srt, Spanish .srt, Italian .srt, Dutch .srt, Polish .txt\nFormat/Info                      : Audio Video Interleave\nFile size                        : 700 MiB\nDuration                         : 1h 21mn\nOverall bit rate                 : 1 205 Kbps\nWriting application              : VirtualDubMod 1.5.10.1 (build 2366/release)\nWriting library                  : VirtualDubMod build 2366/release\nVideo\nID                               : 0\nFormat                           : MPEG-4 Visual\nFormat profile                   : Advanced Simple@L5\nFormat settings, BVOP            : Yes\nFormat settings, QPel            : No\nFormat settings, GMC             : No warppoints\nFormat settings, Matrix          : Default (H.263)\nCodec ID                         : DX50\nCodec ID/Hint                    : DivX 5\nDuration                         : 1h 21mn\nBit rate                         : 1 003 Kbps\nWidth                            : 740 pixels\nHeight                           : 302 pixels\nDisplay aspect ratio             : 2.450\nFrame rate                       : 23.976 fps\nColor space                      : YUV\nChroma subsampling               : 4:2:0\nBit depth                        : 8 bits\nScan type                        : Progressive\nBits/(Pixel*Frame)               : 0.187\nStream size                      : 583 MiB (83%)\nWriting library                  : XviD 1.0.3 (UTC 2004-12-20)\nAudio\nID                               : 1\nFormat                           : AC-3\nFormat/Info                      : Audio Coding 3\nMode extension                   : CM (complete main)\nCodec ID                         : 2000\nDuration                         : 1h 21mn\nBit rate mode                    : Constant\nBit rate                         : 192 Kbps\nChannel(s)                       : 2 channels\nChannel positions                : Front: L R\nSampling rate                    : 48.0 KHz\nBit depth                        : 16 bits\nStream size                      : 111 MiB (16%)\nAlignment                        : Split accross interleaves\nInterleave, duration             : 42 ms (1.00 video frame)\nInterleave, preload duration     : 500 ms\n\nScreen : &lt;a href=&quot;\nhttp://imageshack.us/m/8/6071/returntohouseonhauntedh.jpg&quot; rel=&quot;nofollow&quot; target=&quot;_NEW&quot;&gt;\nhttp://imageshack.us/m/8/6071/returntohouseonhauntedh.jpg&lt;/a&gt; &lt;a href=&quot;\nhttp://imageshack.us/m/830/3819/returntohouseonhauntedhg.jpg&quot; rel=&quot;nofollow&quot; target=&quot;_NEW&quot;&gt;\nhttp://imageshack.us/m/830/3819/returntohouseonhauntedhg.jpg&lt;/a&gt; &lt;a href=&quot;\nhttp://imageshack.us/m/707/6071/returntohouseonhauntedh.jpg&quot; rel=&quot;nofollow&quot; target=&quot;_NEW&quot;&gt;\nhttp://imageshack.us/m/707/6071/returntohouseonhauntedh.jpg&lt;/a&gt; &lt;a href=&quot;\nhttp://imageshack.us/m/835/6071/returntohouseonhauntedh.jpg&quot; rel=&quot;nofollow&quot; target=&quot;_NEW&quot;&gt;\nhttp://imageshack.us/m/835/6071/returntohouseonhauntedh.jpg&lt;/a&gt; &lt;a href=&quot;\nhttp://imageshack.us/m/823/6071/returntohouseonhauntedh.jpg&quot; rel=&quot;nofollow&quot; target=&quot;_NEW&quot;&gt;\nhttp://imageshack.us/m/823/6071/returntohouseonhauntedh.jpg&lt;/a&gt;","torrent":{"xt":"urn:btih:53beaad9b648318bc836677d71c0544b909b5b5a","amp;dn":"+House+On+Haunted+Hill+%2A2007%2A+%5BDVDRip.XviD-miguel%5D+%5BENG%5D","amp;tr":["udp%3A%2F%2Ftracker.openbittorrent.com%3A80","udp%3A%2F%2Fopen.demonii.com%3A1337","udp%3A%2F%2Ftracker.coppersurfer.tk%3A6969","udp%3A%2F%2Fexodus.desync.com%3A6969"],"infoHash":"53beaad9b648318bc836677d71c0544b909b5b5a","infoHashBuffer":{"type":"Buffer","data":[83,190,170,217,182,72,49,139,200,54,103,125,113,192,84,75,144,155,91,90]},"announce":[],"urlList":[]}}